HIERARCHY
ROOT Hips
{
 OFFSET 0.000000 0.000000 0.000000
 CHANNELS 6 Xposition Yposition Zposition Yrotation Xrotation Zrotation
 JOINT Chest
 {
  OFFSET 0.000000 9.585900 0.002600
  CHANNELS 3 Yrotation Xrotation Zrotation
  JOINT Chest2
  {
   OFFSET 0.000000 9.601200 -0.005300
   CHANNELS 3 Yrotation Xrotation Zrotation
   JOINT Chest3
   {
    OFFSET 0.000000 9.561800 0.000000
    CHANNELS 3 Yrotation Xrotation Zrotation
    JOINT Chest4
    {
     OFFSET 0.000000 9.552100 0.000000
     CHANNELS 3 Yrotation Xrotation Zrotation
     JOINT Neck
     {
      OFFSET 0.000000 14.453000 0.000000
      CHANNELS 3 Yrotation Xrotation Zrotation
      JOINT Head
      {
       OFFSET 0.000000 8.936500 -0.011300
       CHANNELS 3 Yrotation Xrotation Zrotation
       End Site
       {
        OFFSET 0.000000 17.073600 -0.006000
       }
      }
     }
     JOINT RightCollar
     {
      OFFSET -2.921100 9.558500 0.000000
      CHANNELS 3 Yrotation Xrotation Zrotation
      JOINT RightShoulder
      {
       OFFSET -13.519700 0.000000 0.000000
       CHANNELS 3 Yrotation Xrotation Zrotation
       JOINT RightElbow
       {
        OFFSET 0.000000 -29.696600 0.000000
        CHANNELS 3 Yrotation Xrotation Zrotation
        JOINT RightWrist
        {
         OFFSET 0.000000 -24.004700 0.000000
         CHANNELS 3 Yrotation Xrotation Zrotation
         End Site
         {
          OFFSET 0.000000 -17.728500 0.000000
         }
        }
       }
      }
     }
     JOINT LeftCollar
     {
      OFFSET 2.921100 9.558500 0.000000
      CHANNELS 3 Yrotation Xrotation Zrotation
      JOINT LeftShoulder
      {
       OFFSET 13.519700 0.000000 0.000000
       CHANNELS 3 Yrotation Xrotation Zrotation
       JOINT LeftElbow
       {
        OFFSET 0.000000 -29.696600 0.000000
        CHANNELS 3 Yrotation Xrotation Zrotation
        JOINT LeftWrist
        {
         OFFSET 0.000000 -24.004700 0.000000
         CHANNELS 3 Yrotation Xrotation Zrotation
         End Site
         {
          OFFSET 0.000000 -17.728500 0.000000
         }
        }
       }
      }
     }
    }
   }
  }
 }
 JOINT RightHip
 {
  OFFSET -7.771700 -0.012900 -0.001300
  CHANNELS 3 Yrotation Xrotation Zrotation
  JOINT RightKnee
  {
   OFFSET 0.000000 -40.869800 0.001200
   CHANNELS 3 Yrotation Xrotation Zrotation
   JOINT RightAnkle
   {
    OFFSET 0.000000 -39.717900 0.002100
    CHANNELS 3 Yrotation Xrotation Zrotation
    JOINT RightToe
    {
     OFFSET 0.000000 -4.965400 11.033500
     CHANNELS 3 Yrotation Xrotation Zrotation
     End Site
     {
      OFFSET 0.000000 -1.423100 5.872300
     }
    }
   }
  }
 }
 JOINT LeftHip
 {
  OFFSET 7.771700 -0.012900 -0.001300
  CHANNELS 3 Yrotation Xrotation Zrotation
  JOINT LeftKnee
  {
   OFFSET 0.000000 -40.869800 0.001200
   CHANNELS 3 Yrotation Xrotation Zrotation
   JOINT LeftAnkle
   {
    OFFSET 0.000000 -39.717900 0.002100
    CHANNELS 3 Yrotation Xrotation Zrotation
    JOINT LeftToe
    {
     OFFSET 0.000000 -4.965400 11.033500
     CHANNELS 3 Yrotation Xrotation Zrotation
     End Site
     {
      OFFSET 0.000000 -1.423100 5.872300
     }
    }
   }
  }
 }
}
MOTION
Frames: 13
Frame Time: 0.008333
-71.997923 47.811145 20.711906 179.468383 -31.530057 0.251404 -1.062203 13.153351 2.184094 -0.903713 7.502207 1.768764 -1.074733 9.421417 2.206319 -0.866743 7.593639 1.801603 -2.549832 18.666833 -4.606270 -3.169750 -1.033958 -7.601219 5.822361 4.510437 -4.762212 -2.275331 -16.268300 -9.477485 44.236479 -64.659215 -26.948215 12.036570 7.210579 -35.930939 -2.592963 -0.608530 -2.938642 1.622048 -16.581447 -3.061575 -73.244021 -48.479549 43.741756 -8.885552 15.691997 30.492951 34.614388 -44.575109 -39.017639 -115.981018 65.881032 -106.769524 2.583462 -3.316931 4.524667 0.033586 -1.144066 -0.014156 -10.620573 -53.568562 9.075795 83.826166 80.830524 81.125850 -4.628686 -8.128937 -4.124192 0.356533 1.019798 0.135407
-71.995750 47.807516 20.709489 179.417472 -31.567652 0.274958 -1.038243 13.159960 2.176213 -0.913564 7.455366 1.740058 -1.076737 9.400894 2.185703 -0.879665 7.546835 1.774961 -2.950228 18.841212 -4.855939 -3.851346 -0.781411 -7.941343 5.871979 4.555318 -4.760493 -2.167501 -16.344626 -9.456747 43.793641 -64.476763 -26.488545 11.953728 7.083435 -35.912668 -2.564092 -0.506530 -2.882299 1.495896 -16.756846 -2.764334 -72.962842 -48.692538 43.254867 -8.800343 15.776345 30.369933 34.655289 -44.550102 -39.007549 -116.021070 65.892809 -106.801092 2.588339 -3.299931 4.526383 0.023135 -1.161980 -0.008527 -10.660645 -53.528642 9.120131 83.992468 80.821817 81.269109 -4.622036 -8.138890 -4.153167 0.360689 1.017728 0.147764
-71.994367 47.802978 20.707751 179.394308 -31.603394 0.297118 -1.049539 13.134030 2.139851 -0.902146 7.440194 1.716315 -1.076477 9.380081 2.162375 -0.888173 7.500910 1.740877 -3.344988 19.012600 -5.087805 -4.525143 -0.533540 -8.261970 5.907808 4.597094 -4.749126 -2.057841 -16.424284 -9.446502 43.372761 -64.290008 -26.042731 11.840644 6.952870 -35.878416 -2.550133 -0.402342 -2.805042 1.386828 -16.953447 -2.448383 -72.681004 -48.936676 42.732530 -8.708186 15.859662 30.232405 34.666463 -44.515797 -38.995081 -116.031057 65.900890 -106.807926 2.578877 -3.311877 4.521971 0.027232 -1.149871 -0.002972 -10.704123 -53.491404 9.144812 84.103855 80.806425 81.342875 -4.605200 -8.145059 -4.153365 0.347655 1.021216 0.140019
-71.989505 47.798962 20.704559 179.375281 -31.653278 0.306140 -1.050692 13.078559 2.089658 -0.887209 7.469151 1.712711 -1.073965 9.359796 2.135809 -0.885745 7.484775 1.719630 -3.738763 19.147615 -5.316457 -5.179376 -0.296981 -8.557172 5.923977 4.613355 -4.753699 -1.943714 -16.509121 -9.451283 42.906747 -64.160092 -25.600097 11.746619 6.854415 -35.768583 -2.556575 -0.366488 -2.732757 1.286564 -17.133386 -2.110009 -72.388433 -49.201519 42.174090 -8.610254 15.933916 30.083797 34.670271 -44.477936 -38.974316 -116.091754 65.908659 -106.853778 2.573781 -3.316231 4.513291 0.026365 -1.154521 -0.001490 -10.717037 -53.440514 9.151938 84.199164 80.786002 81.440048 -4.623795 -8.162818 -4.174499 0.361573 1.030158 0.145791
-71.983877 47.793466 20.703445 179.360920 -31.693443 0.318766 -1.035975 13.042081 2.044744 -0.881611 7.469478 1.695693 -1.069362 9.340586 2.105895 -0.881636 7.469515 1.695695 -4.112983 19.274892 -5.526130 -5.803394 -0.074379 -8.824755 5.938072 4.633645 -4.759477 -1.826510 -16.595135 -9.475731 42.543663 -63.968910 -25.207607 11.549862 6.728097 -35.680558 -2.563105 -0.313660 -2.649230 1.170093 -17.349934 -1.760678 -72.075957 -49.479702 41.589340 -8.505267 15.997402 29.927295 34.684526 -44.446112 -38.986370 -116.161918 65.920356 -106.913875 2.616683 -3.305505 4.522550 -0.021155 -1.174265 -0.015926 -10.724792 -53.400896 9.142575 84.235670 80.765599 81.510227 -4.677299 -8.176396 -4.233371 0.418901 1.037421 0.168164
-71.977913 47.787398 20.703252 179.359337 -31.733136 0.333905 -1.026011 13.021637 1.994569 -0.884908 7.491541 1.702610 -1.056982 9.286595 2.039038 -0.875365 7.455477 1.669445 -4.462914 19.395353 -5.717057 -6.388320 0.136026 -9.066423 5.951760 4.655509 -4.767329 -1.707019 -16.676710 -9.524256 42.226029 -63.784942 -24.866332 11.322497 6.604818 -35.548966 -2.557962 -0.276193 -2.579090 1.012142 -17.568132 -1.385822 -71.729073 -49.766217 40.986386 -8.391400 16.037428 29.766061 34.678287 -44.406988 -38.977297 -116.177664 65.920040 -106.927689 2.631573 -3.325089 4.514177 -0.038313 -1.159119 -0.011803 -10.766027 -53.362867 9.147047 84.298934 80.747973 81.558516 -4.674808 -8.181158 -4.239509 0.416541 1.043697 0.159952
-71.975888 47.780681 20.704425 179.351392 -31.769798 0.386981 -1.014391 13.001618 1.907668 -0.871908 7.461036 1.657876 -1.047921 9.290677 2.020295 -0.866216 7.443643 1.640951 -4.785031 19.510659 -5.889499 -6.927712 0.337629 -9.283429 5.962612 4.678964 -4.780716 -1.584736 -16.754817 -9.593422 41.914300 -63.640668 -24.554414 11.113569 6.493966 -35.358323 -2.549546 -0.202373 -2.493454 0.828293 -17.839247 -1.028540 -71.336195 -50.065773 40.365521 -8.273399 16.037963 29.602813 34.718461 -44.355491 -39.025397 -116.218355 65.923404 -106.965437 2.635613 -3.329183 4.511290 -0.045083 -1.156089 -0.011457 -10.793743 -53.327428 9.115665 84.370158 80.720236 81.580075 -4.638236 -8.186893 -4.222015 0.386012 1.055117 0.137306
-71.968574 47.772209 20.709001 179.340329 -31.790193 0.420023 -0.992373 12.972481 1.841895 -0.854794 7.435388 1.611136 -1.037668 9.297685 2.000586 -0.854773 7.435360 1.611058 -5.075484 19.622717 -6.042611 -7.415163 0.534294 -9.475494 5.973036 4.705858 -4.806336 -1.465136 -16.834191 -9.672244 41.650553 -63.509351 -24.287411 10.909006 6.374955 -35.129393 -2.526058 -0.150189 -2.426521 0.605151 -18.107851 -0.662367 -70.894262 -50.388934 39.726670 -8.161883 15.994283 29.443437 34.774611 -44.331433 -39.070496 -116.279595 65.936186 -107.015956 2.633631 -3.303881 4.502583 -0.063575 -1.173131 -0.007590 -10.791339 -53.309756 9.090420 84.361994 80.697757 81.571905 -4.648723 -8.190985 -4.229154 0.403604 1.068040 0.133541
-71.959519 47.766209 20.710381 179.329654 -31.840617 0.451103 -0.968474 12.980335 1.774879 -0.842093 7.431748 1.581299 -1.022416 9.292999 1.963461 -0.842081 7.431767 1.581259 -5.331688 19.732812 -6.176088 -7.846151 0.728455 -9.642880 5.985834 4.735200 -4.847309 -1.350705 -16.913861 -9.757243 41.406230 -63.394159 -24.038066 10.727980 6.241517 -34.858325 -2.501606 -0.107488 -2.357541 0.379708 -18.387107 -0.318684 -70.409949 -50.732722 39.075575 -8.061653 15.906305 29.293569 34.805089 -44.280126 -39.078966 -116.323753 65.936924 -107.052660 2.635609 -3.290301 4.505509 -0.070295 -1.179262 -0.015788 -10.778519 -53.259799 9.055668 84.344570 80.662219 81.561677 -4.674928 -8.186127 -4.248647 0.417665 1.071312 0.129650
-71.944858 47.758966 20.714658 179.334521 -31.878190 0.446312 -0.947779 12.982861 1.737068 -0.828860 7.433259 1.551897 -1.006483 9.294783 1.926941 -0.828849 7.433305 1.551888 -5.553519 19.839573 -6.289251 -8.220438 0.917672 -9.784192 5.998948 4.763241 -4.901316 -1.237715 -16.988465 -9.849578 41.150308 -63.302482 -23.781117 10.582230 6.091354 -34.547411 -2.478606 -0.078800 -2.302246 0.169456 -18.671835 0.013085 -69.906862 -51.078623 38.427123 -7.962045 15.772707 29.156192 34.787366 -44.252604 -39.051428 -116.337085 65.943590 -107.066742 2.662791 -3.299894 4.518770 -0.105472 -1.168954 -0.028605 -10.795969 -53.220896 9.051723 84.298304 80.598834 81.568262 -4.775259 -8.187480 -4.315113 0.482650 1.082130 0.148168
-71.932168 47.751156 20.720858 179.332958 -31.908458 0.459854 -0.936203 12.997351 1.704597 -0.803437 7.428269 1.502715 -0.990970 9.303193 1.891184 -0.816009 7.440108 1.523131 -5.742481 19.937766 -6.382189 -8.540439 1.092213 -9.898791 6.011033 4.786331 -4.965115 -1.128559 -17.056695 -9.948732 40.855719 -63.239846 -23.483548 10.470716 5.920766 -34.207281 -2.461157 -0.067035 -2.261306 -0.009153 -18.960913 0.331108 -69.413400 -51.414978 37.795924 -7.848115 15.602960 29.034484 34.813827 -44.228881 -39.056741 -116.383425 65.937606 -107.106339 2.665816 -3.294166 4.522113 -0.117947 -1.169939 -0.034181 -10.788541 -53.191273 9.029541 84.237018 80.577273 81.529712 -4.794459 -8.194984 -4.328263 0.497266 1.101895 0.146959
-71.921077 47.743619 20.727677 179.317898 -31.939444 0.490591 -0.913971 13.014511 1.663212 -0.779563 7.431374 1.454845 -0.976769 9.317267 1.856425 -0.804312 7.451407 1.495251 -5.897538 20.023140 -6.456561 -8.803724 1.244309 -9.989717 6.026583 4.807145 -5.036093 -1.029895 -17.121867 -10.056216 40.486248 -63.214669 -23.103773 10.387893 5.732167 -33.845186 -2.431016 -0.074204 -2.226339 -0.170333 -19.248351 0.626030 -68.940003 -51.741608 37.185489 -7.716047 15.423873 28.933845 34.899018 -44.211285 -39.091621 -116.488063 65.904855 -107.193833 2.637976 -3.245438 4.516922 -0.095814 -1.210315 -0.028944 -10.865342 -53.151527 9.072732 84.259430 80.558772 81.495805 -4.768479 -8.205285 -4.334820 0.489551 1.122848 0.164830
-71.910618 47.737495 20.733312 179.313051 -31.982608 0.517858 -0.885139 13.036600 1.604374 -0.779557 7.447332 1.442901 -0.958246 9.335209 1.803133 -0.793756 7.465741 1.467757 -6.013610 20.095046 -6.514924 -9.000410 1.373019 -10.063099 6.046287 4.829994 -5.108639 -0.944528 -17.184227 -10.172931 40.019023 -63.238756 -22.621694 10.325960 5.534343 -33.462009 -2.382791 -0.091568 -2.189883 -0.328198 -19.531439 0.892902 -68.482203 -52.057759 36.597723 -7.570268 15.258614 28.853311 34.933869 -44.174531 -39.102111 -116.538568 65.896892 -107.238424 2.626117 -3.221892 4.518457 -0.089688 -1.225168 -0.030799 -10.897171 -53.106637 9.071087 84.260626 80.542521 81.469723 -4.746667 -8.209215 -4.334678 0.471962 1.135361 0.157717
